<svg xmlns="http://www.w3.org/2000/svg" viewBox="0 0 200 200"><rect width="200" height="200" fill="#000"/><circle cx="100" cy="100" r="94" fill="#000" stroke="#2d2d2d" stroke-width="1.5"/><path d="M18 107C28 55 58 20 100 20s72 35 82 87c-22 15-48 19-78 9c31-2 52-14 65-38c-35 13-103 13-138 0c13 24 34 36 65 38c-30 10-56 6-78-9z" fill="#fff"/><path d="M34 77c19 16 42 23 66 23s47-7 66-23c-11 31-34 48-66 48S45 108 34 77z" fill="#000"/><path d="M47 111c16 20 31 30 53 30s37-10 53-30c-8 42-25 62-53 62s-45-20-53-62z" fill="#fff"/><path d="M73 111l18 20l-13 34l-31-52zM127 111l-18 20l13 34l31-52zM90 130h20l-10 17zM75 121c11 8 20 12 25 12s14-4 25-12c-8 20-16 30-25 30s-17-10-25-30z" fill="#000"/><path d="M78 48c13-12 33-16 52-7c-16 2-31 9-42 22z" fill="#fff" opacity=".8"/><path d="M84 57c10-7 25-9 39-4c-12 2-22 7-30 15z" fill="#fff" opacity=".35"/></svg>